<svg id="Group_470" data-name="Group 470" xmlns="http://www.w3.org/2000/svg" width="22.489" height="22.489" viewBox="0 0 22.489 22.489">
  <path id="Path_687" data-name="Path 687" d="M1276.616,27.857a1.318,1.318,0,1,0,1.319,1.318A1.319,1.319,0,0,0,1276.616,27.857Z" transform="translate(-1259.418 -23.841)" fill="#5e5c5c"/>
  <path id="Path_688" data-name="Path 688" d="M1273.664,29.06A5.538,5.538,0,1,0,1279.2,34.6,5.544,5.544,0,0,0,1273.664,29.06Zm0,9.086a3.548,3.548,0,1,1,3.548-3.548A3.551,3.551,0,0,1,1273.664,38.146Z" transform="translate(-1262.327 -23.353)" fill="#5e5c5c"/>
  <path id="Path_689" data-name="Path 689" d="M1279.734,47.489h-8.979A6.763,6.763,0,0,1,1264,40.734V31.755A6.763,6.763,0,0,1,1270.755,25h8.979a6.763,6.763,0,0,1,6.755,6.755v8.979A6.763,6.763,0,0,1,1279.734,47.489Zm-8.979-20.374a4.645,4.645,0,0,0-4.64,4.64v8.979a4.645,4.645,0,0,0,4.64,4.64h8.979a4.645,4.645,0,0,0,4.639-4.64V31.755a4.645,4.645,0,0,0-4.639-4.64Z" transform="translate(-1264 -25)" fill="#5e5c5c"/>
</svg>
