<svg id="Group_7" data-name="Group 7" xmlns="http://www.w3.org/2000/svg" width="30.922" height="30.923" viewBox="0 0 30.922 30.923">
  <g id="Group_6" data-name="Group 6">
    <g id="Group_5" data-name="Group 5">
      <path id="Path_21" data-name="Path 21" d="M1269.347,3685.928a1.813,1.813,0,1,0,1.813,1.813A1.813,1.813,0,0,0,1269.347,3685.928Z" transform="translate(-1245.7 -3680.407)" fill="#fff"/>
      <path id="Path_22" data-name="Path 22" d="M1265.287,3687.582a7.615,7.615,0,1,0,7.615,7.615A7.625,7.625,0,0,0,1265.287,3687.582Zm0,12.494a4.878,4.878,0,1,1,4.879-4.879A4.884,4.884,0,0,1,1265.287,3700.076Z" transform="translate(-1249.7 -3679.736)" fill="#fff"/>
      <path id="Path_23" data-name="Path 23" d="M1273.635,3712.923h-12.346a9.3,9.3,0,0,1-9.288-9.288v-12.347a9.3,9.3,0,0,1,9.288-9.288h12.346a9.3,9.3,0,0,1,9.288,9.288v12.347A9.3,9.3,0,0,1,1273.635,3712.923Zm-12.346-28.013a6.385,6.385,0,0,0-6.378,6.378v12.347a6.384,6.384,0,0,0,6.378,6.378h12.346a6.385,6.385,0,0,0,6.379-6.378v-12.347a6.386,6.386,0,0,0-6.379-6.378Z" transform="translate(-1252 -3682)" fill="#fff"/>
    </g>
  </g>
</svg>
