<svg xmlns="http://www.w3.org/2000/svg" width="28" height="25.15" viewBox="0 0 28 25.15">
  <path id="Path_10442" data-name="Path 10442" d="M15,7.112a12.405,12.405,0,0,1,11.225,7.223,12.627,12.627,0,0,1-3.067,4.1l1.795,1.852A15.509,15.509,0,0,0,29,14.336a15.07,15.07,0,0,0-14-9.85,14.656,14.656,0,0,0-4.633.749l2.1,2.167A12.484,12.484,0,0,1,15,7.112Zm-1.362,1.5,2.635,2.719A3.232,3.232,0,0,1,17.9,13.009l2.635,2.719a6.33,6.33,0,0,0,.178-1.405A5.8,5.8,0,0,0,15,8.426,5.244,5.244,0,0,0,13.638,8.609ZM2.285,4.315,5.7,7.835a15.385,15.385,0,0,0-4.7,6.5,15.07,15.07,0,0,0,14,9.85,14.524,14.524,0,0,0,5.5-1.077L24.851,27.6l1.795-1.852L4.08,2.45Zm9.545,9.85,3.322,3.428a.621.621,0,0,1-.153.026,3.235,3.235,0,0,1-3.182-3.283C11.818,14.27,11.831,14.23,11.831,14.165ZM7.5,9.7,9.731,12a6.208,6.208,0,0,0-.458,2.338A5.83,5.83,0,0,0,15,20.245a5.592,5.592,0,0,0,2.253-.473L18.5,21.06a12.9,12.9,0,0,1-3.5.5A12.405,12.405,0,0,1,3.775,14.336,12.919,12.919,0,0,1,7.5,9.7Z" transform="translate(-1 -2.45)" fill="#7e7d7d"/>
</svg>
