<svg xmlns="http://www.w3.org/2000/svg" width="28" height="21" viewBox="0 0 28 21">
  <path id="Path_10441" data-name="Path 10441" d="M15,6.8a12.386,12.386,0,0,1,11.225,7.7A12.386,12.386,0,0,1,15,22.2,12.386,12.386,0,0,1,3.775,14.5,12.386,12.386,0,0,1,15,6.8M15,4C8.636,4,3.2,8.354,1,14.5,3.2,20.646,8.636,25,15,25s11.8-4.354,14-10.5C26.8,8.354,21.364,4,15,4Zm0,7a3.354,3.354,0,0,1,3.182,3.5A3.354,3.354,0,0,1,15,18a3.354,3.354,0,0,1-3.182-3.5A3.354,3.354,0,0,1,15,11m0-2.8c-3.156,0-5.727,2.828-5.727,6.3S11.844,20.8,15,20.8s5.727-2.828,5.727-6.3S18.156,8.2,15,8.2Z" transform="translate(-1 -4)" fill="#7e7d7d"/>
</svg>
