<svg xmlns="http://www.w3.org/2000/svg" viewBox="0 0 175.6 128.73"><defs><style>.cls-1{fill:#605b66;}.cls-2{fill:#e79c3a;}</style></defs><g id="レイヤー_2" data-name="レイヤー 2"><g id="デザイン"><path class="cls-1" d="M115.27,47.89l-1,1,6.61,9.58-7.81,5.4-2.42-3.5-4.2-6.1-1.3.54-.3.1c-10.29,3.4-21.54,1.89-29.67-5.58a29,29,0,0,1-9-17.75c-.91-9,5.07-18.08,14.75-18.08a14.25,14.25,0,0,1,2.53.22,18.81,18.81,0,0,0-4.81,5.39c-.13.22-.29.48-.41.74A17.74,17.74,0,0,0,76.32,31a18.59,18.59,0,0,0,7.17,12.14,17.68,17.68,0,0,0,4.24,2.39,15.77,15.77,0,0,0,1.75.61,19.66,19.66,0,0,0,5,.69c8.34,0,16.38-6.23,18-14.57.05-.24.21-1.25.3-1.8,0-.09.08-1.65.08-2s-.1-2.58-.14-2.88c0-.52-.1-1-.15-1.44l-.11-.68-.08-.5a32.11,32.11,0,0,0-2.92-8.84c-.42-.83-.87-1.6-1.29-2.31a32.63,32.63,0,0,0-8.1-8.91l-.16-.1c-.26-.19-.54-.4-.83-.59a9.73,9.73,0,0,0-.82-.54A17,17,0,0,0,96.53.59C96.26.43,95.72.16,95.4,0L96,0c.43,0,2.32.21,2.62.26s.73.12.73.12l1.46.28c.33.07.71.17,1.06.26l.38.1.9.28.18.05c.27.07,1.94.71,2.29.87s.71.3,1,.45l.49.24s1.09.58,1.32.72a14,14,0,0,1,1.51.9l.69.45.94.68A27.63,27.63,0,0,1,121,18.08s.26.67.33.9c.31.89.54,1.63.73,2.36A28.62,28.62,0,0,1,115.27,47.89Z"/><path class="cls-2" d="M105.2,58.56a33.91,33.91,0,0,1-5,1.32l-.5.06-1.2.2-1.18.1-.24,0,2.5,3.63,6.34-4.37Z"/><path class="cls-2" d="M109.33,28.44a17,17,0,0,1-1,5.29A15.38,15.38,0,0,1,92,43.15a19,19,0,0,0,6.07-21.28A19,19,0,0,0,79.33,10.12a17.77,17.77,0,0,0-10.16,4.26,19.34,19.34,0,0,0-6,10.89A27.83,27.83,0,0,0,66.4,43.59a32.85,32.85,0,0,0,5.43,7.3c2.21,2.25,5,4.93,8.09,6a28.74,28.74,0,0,1-16.48-6,28.6,28.6,0,0,1-8-34.74,29.22,29.22,0,0,1,1.71-3,28.35,28.35,0,0,1,8.58-8.59A28.43,28.43,0,0,1,108.88,23,23.75,23.75,0,0,1,109.33,28.44Z"/><path class="cls-1" d="M13,123.42A16.26,16.26,0,0,1,1,118.5l-1-1,5.43-4.85.88.82c2.16,2,4.35,3,6.52,3a5.79,5.79,0,0,0,3.6-1.09,2.51,2.51,0,0,0,1.29-2.1,2.3,2.3,0,0,0-1.12-2,27.09,27.09,0,0,0-5.38-2.67,20.22,20.22,0,0,1-6.48-3.86,8.12,8.12,0,0,1-2.47-6.13,8,8,0,0,1,3.45-6.51,13.64,13.64,0,0,1,8.56-2.54c3.5,0,7.21,1.5,11,4.48l1.29,1L21,99.82l-.82-.61c-2.41-1.8-4.6-2.71-6.5-2.71a4.44,4.44,0,0,0-2.73.79A1.81,1.81,0,0,0,10,98.83c0,.37.11,1,1,1.64a29.7,29.7,0,0,0,5.37,2.71,22.42,22.42,0,0,1,6.63,4,7.93,7.93,0,0,1,2.6,6,9.11,9.11,0,0,1-3.77,7.4A13.86,13.86,0,0,1,13,123.42Z"/><path class="cls-1" d="M114.71,123.42a16.29,16.29,0,0,1-12.07-4.92l-1-1,5.43-4.85.87.82c2.17,2,4.36,3,6.52,3a5.8,5.8,0,0,0,3.61-1.09,2.53,2.53,0,0,0,1.29-2.1,2.3,2.3,0,0,0-1.12-2,27.09,27.09,0,0,0-5.38-2.67,20.39,20.39,0,0,1-6.49-3.86A8.15,8.15,0,0,1,104,98.72a8,8,0,0,1,3.45-6.51A13.63,13.63,0,0,1,116,89.67c3.5,0,7.21,1.5,11,4.48l1.29,1-5.63,4.66-.83-.61c-2.41-1.8-4.59-2.71-6.5-2.71a4.43,4.43,0,0,0-2.72.79,1.83,1.83,0,0,0-.89,1.54c0,.37.11,1,1,1.64a29.35,29.35,0,0,0,5.37,2.71,22.49,22.49,0,0,1,6.62,4,7.94,7.94,0,0,1,2.61,6,9.14,9.14,0,0,1-3.77,7.4A13.88,13.88,0,0,1,114.71,123.42Z"/><path class="cls-1" d="M52.7,119.76v2.57h7.1v-32H52.7v12.21a34.78,34.78,0,0,1-.47,7.43,8.69,8.69,0,0,1-1.63,3.2,8.49,8.49,0,0,1-2.8,2.34,7.06,7.06,0,0,1-3.26.82,7.25,7.25,0,0,1-2.82-.48A4.24,4.24,0,0,1,40,114.44a7.41,7.41,0,0,1-1.13-2.52,28.61,28.61,0,0,1-.42-6.28V90.3h-7v16.42c0,4.22.46,7.29,1.41,9.41a11.47,11.47,0,0,0,4.38,5.1,11.85,11.85,0,0,0,6.47,1.85A13.81,13.81,0,0,0,52.7,119.76Z"/><path class="cls-1" d="M94.76,94.62a15.85,15.85,0,0,0-11.77-5A15.21,15.21,0,0,0,73.29,93V79.36h-7v43.09h7v-2.64a14.43,14.43,0,0,0,9.62,3.61,16,16,0,0,0,11.77-5,17.2,17.2,0,0,0,.08-23.82Zm-5.2,18.87a9.35,9.35,0,0,1-13.66.05,10.08,10.08,0,0,1-2.82-7.27,9.59,9.59,0,0,1,2.77-7.08,9.29,9.29,0,0,1,6.93-2.8,8.9,8.9,0,0,1,6.86,3,10,10,0,0,1,2.77,7.07A9.84,9.84,0,0,1,89.56,113.49Z"/><path class="cls-1" d="M163.44,110.73h0l0,0A.1.1,0,0,1,163.44,110.73Z"/><path class="cls-1" d="M175.6,101.36c0-.24,0-.48,0-.73s0-.49,0-.75a4.67,4.67,0,0,0,0-.52c0-.31-.07-.63-.11-.94s-.06-.39-.08-.59,0-.17,0-.25a16.62,16.62,0,0,0-.37-1.7,18.05,18.05,0,0,0-.55-1.81c-.08-.26-.18-.51-.28-.75a.42.42,0,0,0-.07-.18c-.09-.23-.19-.46-.28-.68a2.25,2.25,0,0,0-.11-.22,8,8,0,0,0-.35-.72,17.16,17.16,0,0,0-.89-1.63,23.42,23.42,0,0,0-1.59-2.25l-.59-.7c-.2-.23-.4-.46-.61-.67l-.31-.32-.31-.31a19.28,19.28,0,0,0-2.12-1.81c-.25-.19-.49-.37-.75-.54a5.07,5.07,0,0,0-.54-.36,10.5,10.5,0,0,0-1.16-.7,5.86,5.86,0,0,0-.55-.3,1.24,1.24,0,0,0-.3-.16c-.18-.09-.36-.19-.54-.27a7.54,7.54,0,0,0-.82-.36,8.48,8.48,0,0,0-.88-.35,9.44,9.44,0,0,0-1-.35,4.54,4.54,0,0,0-.63-.18,1.15,1.15,0,0,0-.36-.11,7.72,7.72,0,0,0-.83-.2c-.3-.07-.6-.14-.9-.19l-.09,0-.69-.11c-.27,0-.55-.08-.84-.1h-.08c-.35,0-.72-.08-1.09-.1l-1.13,0-1.13,0h0c-.33,0-.68,0-1,.1h-.2c-.24,0-.47,0-.72.09s-.52.08-.77.12a22,22,0,0,0-18.06,20.88c0,.25,0,.49,0,.73s0,.5,0,.74,0,.5.05.75a4.38,4.38,0,0,0,0,.52c0,.31.06.62.1.94l.09.6a1.75,1.75,0,0,1,0,.24c.11.58.22,1.15.37,1.7s.34,1.22.55,1.8c.09.27.18.52.29.77a1.77,1.77,0,0,1,.06.17c.1.24.19.47.3.69.18.41.37.82.58,1.21.09.18.18.35.28.52a20.73,20.73,0,0,0,2.07,3.08c.19.24.38.48.58.7.41.46.83.91,1.26,1.33.23.21.45.43.68.63a19.44,19.44,0,0,0,2.16,1.7l.48.32a4.9,4.9,0,0,0,.48.31q.74.45,1.5.84c.21.11.42.22.65.32a21.51,21.51,0,0,0,3.7,1.35c.28.07.55.15.83.2s.61.14.93.19l.77.13c.25,0,.48.06.72.08l.2,0,1,.09h0l1.13,0c.38,0,.74,0,1.11,0l.72,0,.9-.09.86-.13.28,0a20.93,20.93,0,0,0,5.36-1.68l1.28,1.86,1.33,1.93,2.51,3.64,5.26-3.64.77-.53-5.12-7.41a21.8,21.8,0,0,0,6.68-15.05C175.6,101.86,175.6,101.61,175.6,101.36Zm-7.79.74c0,.19,0,.37,0,.55s0,.35-.06.51-.05.4-.08.59-.07.38-.11.57a14.62,14.62,0,0,1-.46,1.67,11.13,11.13,0,0,1-.67,1.59c-.06.14-.13.28-.19.4s-.2.37-.32.56c-.35.55-.7,1.1-1.1,1.62a14.35,14.35,0,0,1-2.83,2.71,13.62,13.62,0,0,1-1.67,1,16.32,16.32,0,0,1-2,.86,13.77,13.77,0,0,1-2.27.59,13.56,13.56,0,0,1-2.4.21,14.62,14.62,0,0,1-3.89-.54,14.17,14.17,0,0,1-10.26-12.82s0-.71,0-.84,0-.6,0-.73,0-.36,0-.55,0-.34.06-.52a5.62,5.62,0,0,1,.09-.57c0-.19.06-.38.1-.58a15.24,15.24,0,0,1,.47-1.67,11.09,11.09,0,0,1,.66-1.59c.06-.13.12-.26.19-.39l.32-.58a13.58,13.58,0,0,1,1.2-1.72A14,14,0,0,1,144,90.92a14.41,14.41,0,0,1,3.5-2.36,15,15,0,0,1,2.26-.85,13.91,13.91,0,0,1,2.48-.47c.45,0,.91-.06,1.36-.06a14.18,14.18,0,0,1,14.16,13.35s0,.6,0,.83S167.82,101.86,167.81,102.1Z"/></g></g></svg>