<svg xmlns="http://www.w3.org/2000/svg" viewBox="0 0 150.72 40"><defs><style>.cls-1{fill:#605b66;}.cls-2{fill:#e79c3a;}</style></defs><g id="レイヤー_2" data-name="レイヤー 2"><g id="デザイン"><path class="cls-1" d="M145.91,30l-.6.64,4.14,6L144.56,40l-1.51-2.2L140.42,34l-.81.34-.19.06c-6.44,2.12-13.49,1.18-18.57-3.49a18.11,18.11,0,0,1-5.66-11.11c-.57-5.66,3.17-11.32,9.23-11.32a8.47,8.47,0,0,1,1.59.14A11.43,11.43,0,0,0,123,12a3,3,0,0,0-.26.47,11,11,0,0,0-1.21,7A11.62,11.62,0,0,0,126,27a10.8,10.8,0,0,0,2.65,1.5,11,11,0,0,0,1.1.38,12.33,12.33,0,0,0,3.15.44,11.68,11.68,0,0,0,11.25-9.12c0-.16.13-.79.19-1.13,0-.06,0-1,0-1.27s-.07-1.62-.09-1.8c0-.33-.06-.63-.09-.9l-.07-.43,0-.31a20,20,0,0,0-1.83-5.53c-.26-.53-.54-1-.8-1.45A20.64,20.64,0,0,0,136.4,1.8l-.1-.06-.52-.37a5.64,5.64,0,0,0-.51-.34,9.8,9.8,0,0,0-1.09-.66c-.17-.1-.51-.27-.7-.37h.35c.28,0,1.46.13,1.65.16l.45.08.91.17.67.17.24.06.56.18.11,0c.17,0,1.22.44,1.44.54s.44.19.65.28l.3.16.83.44a8.28,8.28,0,0,1,.94.57l.44.28.59.42a17.33,17.33,0,0,1,5.9,7.77s.16.42.2.56c.2.55.34,1,.46,1.48A17.92,17.92,0,0,1,145.91,30Z"/><path class="cls-2" d="M139.61,36.65a21,21,0,0,1-3.16.83l-.31,0c-.25,0-.49.09-.75.12s-.52.06-.74.07l-.15,0L136.06,40l4-2.74Z"/><path class="cls-2" d="M142.19,17.8a10.42,10.42,0,0,1-.66,3.31A9.62,9.62,0,0,1,131.35,27a11.86,11.86,0,0,0,3.8-13.32,11.87,11.87,0,0,0-11.73-7.36A11.19,11.19,0,0,0,117.05,9a12.1,12.1,0,0,0-3.78,6.82,17.43,17.43,0,0,0,2,11.46,20.06,20.06,0,0,0,3.4,4.57,14.51,14.51,0,0,0,5.06,3.74A17.85,17.85,0,0,1,109.53,8.16a17.92,17.92,0,0,1,5.38-5.38,17.8,17.8,0,0,1,27,11.61A14.46,14.46,0,0,1,142.19,17.8Z"/><path class="cls-1" d="M10.56,35.71a13.23,13.23,0,0,1-9.78-4L0,30.92,4.4,27l.71.67a7.88,7.88,0,0,0,5.29,2.46,4.66,4.66,0,0,0,2.91-.88,2,2,0,0,0,1-1.7A1.84,1.84,0,0,0,13.45,26,21.9,21.9,0,0,0,9.1,23.78a16.4,16.4,0,0,1-5.26-3.12,6.58,6.58,0,0,1-2-5,6.5,6.5,0,0,1,2.79-5.28,11.08,11.08,0,0,1,6.94-2.06c2.83,0,5.84,1.22,8.93,3.64l1.05.81L17,16.58l-.67-.5a9.3,9.3,0,0,0-5.27-2.19,3.62,3.62,0,0,0-2.21.64,1.46,1.46,0,0,0-.71,1.25c0,.3.08.77.84,1.32a23.56,23.56,0,0,0,4.35,2.2,18.1,18.1,0,0,1,5.37,3.24,6.43,6.43,0,0,1,2.12,4.84,7.41,7.41,0,0,1-3.06,6A11.3,11.3,0,0,1,10.56,35.71Z"/><path class="cls-1" d="M93,35.71a13.23,13.23,0,0,1-9.78-4l-.78-.8L86.8,27l.71.67a7.88,7.88,0,0,0,5.28,2.46,4.69,4.69,0,0,0,2.92-.88,2,2,0,0,0,1.05-1.7A1.87,1.87,0,0,0,95.85,26a22.06,22.06,0,0,0-4.36-2.17,16.4,16.4,0,0,1-5.26-3.12,6.61,6.61,0,0,1-2-5A6.5,6.5,0,0,1,87,10.41,11.06,11.06,0,0,1,94,8.35c2.83,0,5.84,1.22,8.93,3.64l1,.81-4.55,3.78-.68-.5a9.25,9.25,0,0,0-5.26-2.19,3.58,3.58,0,0,0-2.21.64,1.46,1.46,0,0,0-.72,1.25c0,.3.09.77.85,1.32a23.56,23.56,0,0,0,4.35,2.2,18.1,18.1,0,0,1,5.37,3.24,6.42,6.42,0,0,1,2.11,4.84,7.42,7.42,0,0,1-3,6A11.3,11.3,0,0,1,93,35.71Z"/><path class="cls-1" d="M42.71,32.74v2.08h5.75v-26H42.71v9.9a28.12,28.12,0,0,1-.38,6A7.24,7.24,0,0,1,41,27.37a6.77,6.77,0,0,1-2.27,1.9,6,6,0,0,1-4.93.27,3.31,3.31,0,0,1-1.4-1.11,6.05,6.05,0,0,1-.92-2.05,22.62,22.62,0,0,1-.34-5.08V8.86H25.44V22.17a19.33,19.33,0,0,0,1.14,7.63,9.28,9.28,0,0,0,3.55,4.13,9.57,9.57,0,0,0,5.25,1.5A11.2,11.2,0,0,0,42.71,32.74Z"/><path class="cls-1" d="M76.79,12.37a12.82,12.82,0,0,0-9.54-4,12.31,12.31,0,0,0-7.86,2.72V0H53.73V34.92h5.66V32.78a11.74,11.74,0,0,0,7.8,2.93,13,13,0,0,0,9.54-4A13.4,13.4,0,0,0,80.64,22,13.43,13.43,0,0,0,76.79,12.37ZM72.58,27.66a7.58,7.58,0,0,1-11.07,0,8.17,8.17,0,0,1-2.29-5.89,7.76,7.76,0,0,1,2.25-5.74,7.52,7.52,0,0,1,5.61-2.27,7.18,7.18,0,0,1,5.56,2.42,8.11,8.11,0,0,1,2.25,5.72A8,8,0,0,1,72.58,27.66Z"/><path class="cls-1" d="M132.45,25.42h0l0,0Z"/></g></g></svg>