<svg xmlns="http://www.w3.org/2000/svg" width="30.922" height="25.301" viewBox="0 0 30.922 25.301">
  <path id="Path_25" data-name="Path 25" d="M1282.8,3727.033a12.849,12.849,0,0,1-3.127.886c.5-.084,1.241-.99,1.538-1.355a5.691,5.691,0,0,0,1.037-1.882c.028-.053.048-.121-.007-.16a.176.176,0,0,0-.166.012,15.968,15.968,0,0,1-3.708,1.412.249.249,0,0,1-.256-.068,3.068,3.068,0,0,0-.323-.33,6.558,6.558,0,0,0-1.8-1.094,6.293,6.293,0,0,0-2.755-.441,6.622,6.622,0,0,0-2.613.733,6.755,6.755,0,0,0-2.108,1.712,6.42,6.42,0,0,0-1.26,2.507,6.749,6.749,0,0,0-.066,2.647c.02.147.007.167-.128.147-5.092-.753-9.313-2.565-12.74-6.446-.149-.169-.229-.169-.351.013-1.5,2.233-.773,5.823,1.1,7.587.25.236.506.471.783.685a6.515,6.515,0,0,1-2.458-.685c-.149-.093-.223-.04-.236.127a3.778,3.778,0,0,0,.041.726,6.5,6.5,0,0,0,4.025,5.176,3.772,3.772,0,0,0,.817.249,7.3,7.3,0,0,1-2.41.075c-.176-.034-.243.053-.176.222a6.774,6.774,0,0,0,5.066,4.217c.23.04.459.04.69.093-.014.021-.028.021-.041.041-.569.863-2.541,1.5-3.46,1.823a12.455,12.455,0,0,1-5.254.669c-.283-.042-.342-.038-.419,0s-.01.114.081.187c.359.235.722.444,1.094.646a17.5,17.5,0,0,0,3.512,1.4c6.312,1.733,13.423.459,18.163-4.223,3.722-3.675,5.026-8.745,5.026-13.821,0-.2.236-.309.377-.413a12.281,12.281,0,0,0,2.472-2.556.775.775,0,0,0,.163-.489v-.027C1282.922,3726.952,1282.921,3726.976,1282.8,3727.033Z" transform="translate(-1252 -3724)" fill="#fff"/>
</svg>
