<svg xmlns="http://www.w3.org/2000/svg" width="22.489" height="18.272" viewBox="0 0 22.489 18.272">
  <path id="Twitter" d="M1322.4,28.69a9.375,9.375,0,0,1-2.274.641c.365-.062.9-.715,1.119-.98a4.1,4.1,0,0,0,.755-1.358c.02-.039.034-.089-.006-.117a.127.127,0,0,0-.119.01,11.725,11.725,0,0,1-2.7,1.018.181.181,0,0,1-.185-.048,2.371,2.371,0,0,0-.236-.239,4.821,4.821,0,0,0-1.306-.79,4.6,4.6,0,0,0-2-.318,4.822,4.822,0,0,0-1.9.53,4.9,4.9,0,0,0-1.534,1.235,4.63,4.63,0,0,0-.915,1.812,4.855,4.855,0,0,0-.049,1.91c.015.107.005.121-.093.107a14.461,14.461,0,0,1-9.265-4.655c-.108-.122-.167-.122-.256.01a4.594,4.594,0,0,0,.8,5.48c.181.169.368.339.569.493a4.765,4.765,0,0,1-1.788-.493c-.108-.069-.163-.03-.172.091a2.69,2.69,0,0,0,.03.524,4.7,4.7,0,0,0,2.928,3.739,2.815,2.815,0,0,0,.594.18,5.4,5.4,0,0,1-1.754.053c-.128-.024-.177.038-.128.16a4.917,4.917,0,0,0,3.684,3.044c.167.03.334.03.5.069-.01.014-.02.014-.03.028a5.863,5.863,0,0,1-2.516,1.317,9.121,9.121,0,0,1-3.822.482c-.205-.03-.249-.027-.3,0s-.008.084.058.136c.261.17.526.32.8.465a12.644,12.644,0,0,0,2.554,1.009,13.738,13.738,0,0,0,13.209-3.049c2.707-2.655,3.656-6.317,3.656-9.982,0-.143.171-.223.273-.3a8.851,8.851,0,0,0,1.8-1.846.554.554,0,0,0,.119-.353v-.02C1322.489,28.632,1322.488,28.649,1322.4,28.69Z" transform="translate(-1300 -26.5)" fill="#5e5c5c"/>
</svg>
