<?xml version="1.0" standalone="no"?><svg xmlns="http://www.w3.org/2000/svg" viewBox="0 0 1440 320"><path fill="#f58688" fill-opacity="1" d="M0,288L40,282.7C80,277,160,267,240,272C320,277,400,299,480,282.7C560,267,640,213,720,186.7C800,160,880,160,960,160C1040,160,1120,160,1200,176C1280,192,1360,224,1400,240L1440,256L1440,320L1400,320C1360,320,1280,320,1200,320C1120,320,1040,320,960,320C880,320,800,320,720,320C640,320,560,320,480,320C400,320,320,320,240,320C160,320,80,320,40,320L0,320Z"></path></svg>